# Blender v2.92.0 OBJ File: 'moon.blend'
# www.blender.org
mtllib moon.mtl
o low_球体
v 0.000000 0.839888 -0.347893
v 0.000001 0.909089 -0.000000
v 0.000000 0.839888 0.347893
v 0.000000 0.642823 0.642823
v 0.000000 0.347893 0.839889
v -0.133133 0.321411 0.839889
v -0.245997 0.593891 0.642823
v -0.321411 0.775956 0.347893
v -0.347893 0.839889 -0.000000
v -0.321411 0.775956 -0.347893
v -0.245997 0.593891 -0.642823
v -0.133133 0.321411 -0.839889
v -0.245997 0.245998 -0.839889
v -0.454544 0.454544 -0.642823
v -0.593890 0.593891 -0.347893
v -0.642822 0.642823 -0.000000
v -0.593890 0.593891 0.347893
v -0.454544 0.454544 0.642823
v -0.245997 0.245998 0.839889
v -0.321411 0.133133 0.839889
v -0.593890 0.245998 0.642823
v -0.775955 0.321412 0.347893
v -0.839888 0.347893 -0.000000
v -0.775955 0.321412 -0.347893
v -0.593890 0.245998 -0.642823
v -0.321411 0.133133 -0.839889
v -0.347893 0.000000 -0.839889
v -0.642823 0.000000 -0.642823
v -0.839888 0.000000 -0.347893
v -0.909088 0.000000 -0.000000
v -0.839888 0.000000 0.347893
v -0.642823 0.000000 0.642823
v -0.347893 0.000000 0.839889
v -0.321411 -0.133133 0.839889
v -0.593891 -0.245997 0.642823
v -0.775956 -0.321411 0.347893
v -0.839888 -0.347893 -0.000000
v -0.775956 -0.321411 -0.347893
v -0.593891 -0.245997 -0.642823
v -0.321411 -0.133133 -0.839889
v -0.245998 -0.245997 -0.839889
v -0.454544 -0.454544 -0.642823
v -0.593891 -0.593891 -0.347893
v -0.642823 -0.642823 -0.000000
v -0.593891 -0.593891 0.347893
v -0.454544 -0.454544 0.642823
v -0.245997 -0.245998 0.839889
v -0.133133 -0.321411 0.839889
v -0.245998 -0.593891 0.642823
v -0.321411 -0.775956 0.347893
v -0.347893 -0.839888 -0.000000
v -0.321411 -0.775956 -0.347893
v -0.245998 -0.593891 -0.642823
v -0.133133 -0.321411 -0.839889
v 0.000000 -0.347893 -0.839889
v 0.000000 -0.642823 -0.642823
v 0.000000 -0.839888 -0.347893
v 0.000000 -0.909089 -0.000000
v 0.000000 -0.839888 0.347893
v 0.000000 -0.642823 0.642823
v 0.000000 -0.347893 0.839889
v 0.133133 -0.321411 0.839889
v 0.245998 -0.593891 0.642823
v 0.321411 -0.775956 0.347893
v 0.347893 -0.839889 -0.000000
v 0.321411 -0.775956 -0.347893
v 0.245998 -0.593891 -0.642823
v 0.133133 -0.321411 -0.839889
v 0.245998 -0.245998 -0.839889
v 0.454544 -0.454544 -0.642823
v 0.593891 -0.593891 -0.347893
v 0.642823 -0.642823 -0.000000
v 0.593891 -0.593891 0.347893
v 0.454544 -0.454544 0.642823
v 0.245998 -0.245998 0.839889
v 0.321411 -0.133133 0.839889
v 0.593891 -0.245998 0.642823
v 0.775956 -0.321411 0.347893
v 0.839889 -0.347893 -0.000000
v 0.775956 -0.321411 -0.347893
v 0.593891 -0.245998 -0.642823
v 0.321411 -0.133133 -0.839889
v 0.000000 0.000000 -0.909089
v 0.347893 0.000000 -0.839889
v 0.642823 0.000000 -0.642823
v 0.839889 0.000000 -0.347893
v 0.909089 0.000000 -0.000000
v 0.839889 0.000000 0.347893
v 0.642823 0.000000 0.642823
v 0.000000 0.642823 -0.642823
v 0.000000 0.347893 -0.839889
v 0.321412 0.775955 -0.347893
v 0.347894 0.839888 -0.000000
v 0.321412 0.775955 0.347893
v 0.245998 0.593890 0.642823
v 0.133133 0.321411 0.839889
v 0.245998 0.593890 -0.642823
v 0.133133 0.321411 -0.839889
v 0.593891 0.593890 -0.347893
v 0.642823 0.642822 -0.000000
v 0.593891 0.593890 0.347893
v 0.454545 0.454544 0.642823
v 0.245998 0.245997 0.839889
v 0.454545 0.454544 -0.642823
v 0.245998 0.245997 -0.839889
v 0.775956 0.321411 -0.347893
v 0.839889 0.347893 -0.000000
v 0.775956 0.321411 0.347893
v 0.593891 0.245997 0.642823
v 0.321411 0.133133 0.839889
v 0.593891 0.245997 -0.642823
v 0.321411 0.133133 -0.839889
v 0.347893 -0.000000 0.839889
v 0.000000 0.000000 0.909089
vt 0.875000 0.750000
vt 0.875000 0.875000
vt 0.812500 0.875000
vt 0.812500 0.750000
vt 0.781250 1.000000
vt 0.750000 0.875000
vt 0.812500 0.125000
vt 0.812500 0.250000
vt 0.750000 0.250000
vt 0.750000 0.125000
vt 0.937500 0.750000
vt 0.937500 0.875000
vt 0.875000 0.125000
vt 0.875000 0.250000
vt 0.750000 0.750000
vt 0.812500 0.625000
vt 0.750000 0.625000
vt 0.812500 0.375000
vt 0.750000 0.375000
vt 0.906250 0.000000
vt 0.937500 0.125000
vt 0.937500 0.250000
vt 0.937500 0.375000
vt 0.875000 0.375000
vt 0.843750 0.000000
vt 0.906250 1.000000
vt 0.937500 0.500000
vt 0.875000 0.500000
vt 0.937500 0.625000
vt 0.875000 0.625000
vt 1.000000 0.125000
vt 1.000000 0.250000
vt 0.968750 0.000000
vt 1.000000 0.375000
vt 1.000000 0.500000
vt 1.000000 0.625000
vt 1.000000 0.750000
vt 1.000000 0.875000
vt 0.062500 0.250000
vt 0.062500 0.375000
vt 0.000000 0.375000
vt 0.000000 0.250000
vt 0.062500 0.500000
vt 0.000000 0.500000
vt 0.062500 0.750000
vt 0.062500 0.875000
vt 0.000000 0.875000
vt 0.000000 0.750000
vt 0.031250 1.000000
vt 0.031250 0.000000
vt 0.062500 0.125000
vt 0.000000 0.125000
vt 0.062500 0.625000
vt 0.000000 0.625000
vt 0.968750 1.000000
vt 0.125000 0.375000
vt 0.125000 0.500000
vt 0.125000 0.125000
vt 0.125000 0.250000
vt 0.093750 0.000000
vt 0.125000 0.625000
vt 0.125000 0.750000
vt 0.125000 0.875000
vt 0.187500 0.875000
vt 0.156250 1.000000
vt 0.187500 0.125000
vt 0.187500 0.250000
vt 0.187500 0.375000
vt 0.187500 0.500000
vt 0.093750 1.000000
vt 0.156250 0.000000
vt 0.187500 0.625000
vt 0.187500 0.750000
vt 0.250000 0.125000
vt 0.250000 0.250000
vt 0.250000 0.375000
vt 0.250000 0.750000
vt 0.250000 0.875000
vt 0.250000 0.500000
vt 0.218750 1.000000
vt 0.218750 0.000000
vt 0.250000 0.625000
vt 0.312500 0.875000
vt 0.281250 1.000000
vt 0.312500 0.375000
vt 0.312500 0.500000
vt 0.312500 0.750000
vt 0.312500 0.625000
vt 0.281250 0.000000
vt 0.312500 0.125000
vt 0.312500 0.250000
vt 0.375000 0.875000
vt 0.343750 1.000000
vt 0.375000 0.125000
vt 0.375000 0.250000
vt 0.375000 0.625000
vt 0.375000 0.750000
vt 0.375000 0.375000
vt 0.375000 0.500000
vt 0.343750 0.000000
vt 0.437500 0.125000
vt 0.437500 0.250000
vt 0.437500 0.750000
vt 0.437500 0.875000
vt 0.406250 0.000000
vt 0.437500 0.375000
vt 0.437500 0.500000
vt 0.437500 0.625000
vt 0.500000 0.375000
vt 0.500000 0.500000
vt 0.500000 0.625000
vt 0.468750 0.000000
vt 0.500000 0.125000
vt 0.500000 0.250000
vt 0.500000 0.750000
vt 0.500000 0.875000
vt 0.468750 1.000000
vt 0.406250 1.000000
vt 0.562500 0.750000
vt 0.562500 0.875000
vt 0.562500 0.625000
vt 0.531250 0.000000
vt 0.562500 0.125000
vt 0.562500 0.375000
vt 0.562500 0.500000
vt 0.562500 0.250000
vt 0.531250 1.000000
vt 0.625000 0.250000
vt 0.625000 0.375000
vt 0.593750 0.000000
vt 0.625000 0.125000
vt 0.625000 0.500000
vt 0.625000 0.625000
vt 0.625000 0.750000
vt 0.625000 0.875000
vt 0.593750 1.000000
vt 0.656250 0.000000
vt 0.687500 0.125000
vt 0.687500 0.250000
vt 0.687500 0.375000
vt 0.687500 0.750000
vt 0.687500 0.875000
vt 0.687500 0.625000
vt 0.656250 1.000000
vt 0.687500 0.500000
vt 0.718750 1.000000
vt 0.750000 0.500000
vt 0.718750 0.000000
vt 0.812500 0.500000
vt 0.781250 0.000000
vt 0.843750 1.000000
vn 0.5083 0.5083 0.6952
vn 0.2850 0.2850 0.9152
vn 0.3724 0.1542 0.9152
vn 0.6641 0.2751 0.6952
vn 0.0000 0.0000 1.0000
vn 0.4031 0.0000 0.9152
vn 0.3724 0.1542 -0.9152
vn 0.6641 0.2751 -0.6952
vn 0.7188 0.0000 -0.6952
vn 0.4031 0.0000 -0.9152
vn 0.2751 0.6641 0.6952
vn 0.1542 0.3724 0.9152
vn 0.2850 0.2850 -0.9152
vn 0.5083 0.5083 -0.6952
vn 0.7188 0.0000 0.6952
vn 0.8567 0.3548 0.3743
vn 0.9273 0.0000 0.3743
vn 0.8567 0.3548 -0.3743
vn 0.9273 0.0000 -0.3743
vn 0.0000 0.0000 -1.0000
vn 0.1542 0.3724 -0.9152
vn 0.2751 0.6641 -0.6952
vn 0.3548 0.8567 -0.3743
vn 0.6557 0.6557 -0.3743
vn 0.3827 0.9239 0.0000
vn 0.7071 0.7071 0.0000
vn 0.3548 0.8567 0.3743
vn 0.6557 0.6557 0.3743
vn 0.0000 0.4031 -0.9152
vn 0.0000 0.7188 -0.6952
vn 0.0000 0.9273 -0.3743
vn 0.0000 1.0000 0.0000
vn 0.0000 0.9273 0.3743
vn 0.0000 0.7188 0.6952
vn 0.0000 0.4031 0.9152
vn -0.2751 0.6641 -0.6952
vn -0.3548 0.8567 -0.3743
vn -0.3827 0.9239 0.0000
vn -0.2751 0.6641 0.6952
vn -0.1542 0.3724 0.9152
vn -0.1542 0.3724 -0.9152
vn -0.3548 0.8567 0.3743
vn -0.6557 0.6557 -0.3743
vn -0.7071 0.7071 0.0000
vn -0.2850 0.2850 -0.9152
vn -0.5083 0.5083 -0.6952
vn -0.6557 0.6557 0.3743
vn -0.5083 0.5083 0.6952
vn -0.2850 0.2850 0.9152
vn -0.3724 0.1542 0.9152
vn -0.3724 0.1542 -0.9152
vn -0.6641 0.2751 -0.6952
vn -0.8567 0.3548 -0.3743
vn -0.9239 0.3827 0.0000
vn -0.8567 0.3548 0.3743
vn -0.6641 0.2751 0.6952
vn -0.4031 0.0000 -0.9152
vn -0.7188 0.0000 -0.6952
vn -0.9273 0.0000 -0.3743
vn -0.7188 0.0000 0.6952
vn -0.4031 0.0000 0.9152
vn -1.0000 0.0000 0.0000
vn -0.9273 0.0000 0.3743
vn -0.3724 -0.1542 0.9152
vn -0.8567 -0.3548 -0.3743
vn -0.9239 -0.3827 0.0000
vn -0.6641 -0.2751 0.6952
vn -0.8567 -0.3548 0.3743
vn -0.3724 -0.1542 -0.9152
vn -0.6641 -0.2751 -0.6952
vn -0.2850 -0.2850 0.9152
vn -0.2850 -0.2850 -0.9152
vn -0.5083 -0.5083 -0.6952
vn -0.6557 -0.6557 0.3743
vn -0.5083 -0.5083 0.6952
vn -0.6557 -0.6557 -0.3743
vn -0.7071 -0.7071 0.0000
vn -0.1542 -0.3724 -0.9152
vn -0.2751 -0.6641 -0.6952
vn -0.2751 -0.6641 0.6952
vn -0.1542 -0.3724 0.9152
vn -0.3548 -0.8567 -0.3743
vn -0.3827 -0.9239 0.0000
vn -0.3548 -0.8567 0.3743
vn 0.0000 -0.9273 -0.3743
vn 0.0000 -1.0000 0.0000
vn 0.0000 -0.9273 0.3743
vn 0.0000 -0.4031 -0.9152
vn 0.0000 -0.7188 -0.6952
vn 0.0000 -0.7188 0.6952
vn 0.0000 -0.4031 0.9152
vn 0.2751 -0.6641 0.6952
vn 0.1542 -0.3724 0.9152
vn 0.3548 -0.8567 0.3743
vn 0.1542 -0.3724 -0.9152
vn 0.3548 -0.8567 -0.3743
vn 0.3827 -0.9239 0.0000
vn 0.2751 -0.6641 -0.6952
vn 0.5083 -0.5083 -0.6952
vn 0.6557 -0.6557 -0.3743
vn 0.2850 -0.2850 -0.9152
vn 0.7071 -0.7071 0.0000
vn 0.6557 -0.6557 0.3743
vn 0.5083 -0.5083 0.6952
vn 0.2850 -0.2850 0.9152
vn 0.3724 -0.1542 -0.9152
vn 0.6641 -0.2751 -0.6952
vn 0.8567 -0.3548 -0.3743
vn 0.6641 -0.2751 0.6952
vn 0.3724 -0.1542 0.9152
vn 0.8567 -0.3548 0.3743
vn 0.9239 -0.3827 0.0000
vn 1.0000 0.0000 0.0000
vn 0.9239 0.3827 0.0000
g low_球体_材质
usemtl 材质
s 1
f 102/1/1 103/2/2 110/3/3 109/4/4
f 110/3/3 114/5/5 113/6/6
f 112/7/7 111/8/8 85/9/9 84/10/10
f 95/11/11 96/12/12 103/2/2 102/1/1
f 105/13/13 104/14/14 111/8/8 112/7/7
f 109/4/4 110/3/3 113/6/6 89/15/15
f 108/16/16 109/4/4 89/15/15 88/17/17
f 111/8/8 106/18/18 86/19/19 85/9/9
f 83/20/20 98/21/21 105/13/13
f 98/21/21 97/22/22 104/14/14 105/13/13
f 97/22/22 92/23/23 99/24/24 104/14/14
f 83/25/20 105/13/13 112/7/7
f 96/12/12 114/26/5 103/2/2
f 92/23/23 93/27/25 100/28/26 99/24/24
f 94/29/27 95/11/11 102/1/1 101/30/28
f 101/30/28 102/1/1 109/4/4 108/16/16
f 91/31/29 90/32/30 97/22/22 98/21/21
f 93/27/25 94/29/27 101/30/28 100/28/26
f 83/33/20 91/31/29 98/21/21
f 1/34/31 2/35/32 93/27/25 92/23/23
f 90/32/30 1/34/31 92/23/23 97/22/22
f 3/36/33 4/37/34 95/11/11 94/29/27
f 2/35/32 3/36/33 94/29/27 93/27/25
f 4/37/34 5/38/35 96/12/12 95/11/11
f 11/39/36 10/40/37 1/41/31 90/42/30
f 10/40/37 9/43/38 2/44/32 1/41/31
f 7/45/39 6/46/40 5/47/35 4/48/34
f 6/46/40 114/49/5 5/47/35
f 83/50/20 12/51/41 91/52/29
f 9/43/38 8/53/42 3/54/33 2/44/32
f 8/53/42 7/45/39 4/48/34 3/54/33
f 5/38/35 114/55/5 96/12/12
f 15/56/43 16/57/44 9/43/38 10/40/37
f 13/58/45 14/59/46 11/39/36 12/51/41
f 83/60/20 13/58/45 12/51/41
f 17/61/47 18/62/48 7/45/39 8/53/42
f 14/59/46 15/56/43 10/40/37 11/39/36
f 12/51/41 11/39/36 90/42/30 91/52/29
f 16/57/44 17/61/47 8/53/42 9/43/38
f 18/62/48 19/63/49 6/46/40 7/45/39
f 20/64/50 114/65/5 19/63/49
f 26/66/51 25/67/52 14/59/46 13/58/45
f 24/68/53 23/69/54 16/57/44 15/56/43
f 19/63/49 114/70/5 6/46/40
f 83/71/20 26/66/51 13/58/45
f 23/69/54 22/72/55 17/61/47 16/57/44
f 25/67/52 24/68/53 15/56/43 14/59/46
f 21/73/56 20/64/50 19/63/49 18/62/48
f 22/72/55 21/73/56 18/62/48 17/61/47
f 27/74/57 28/75/58 25/67/52 26/66/51
f 28/75/58 29/76/59 24/68/53 25/67/52
f 32/77/60 33/78/61 20/64/50 21/73/56
f 29/76/59 30/79/62 23/69/54 24/68/53
f 33/78/61 114/80/5 20/64/50
f 83/81/20 27/74/57 26/66/51
f 31/82/63 32/77/60 21/73/56 22/72/55
f 34/83/64 114/84/5 33/78/61
f 38/85/65 37/86/66 30/79/62 29/76/59
f 35/87/67 34/83/64 33/78/61 32/77/60
f 36/88/68 35/87/67 32/77/60 31/82/63
f 83/89/20 40/90/69 27/74/57
f 40/90/69 39/91/70 28/75/58 27/74/57
f 39/91/70 38/85/65 29/76/59 28/75/58
f 30/79/62 31/82/63 22/72/55 23/69/54
f 47/92/71 114/93/5 34/83/64
f 41/94/72 42/95/73 39/91/70 40/90/69
f 45/96/74 46/97/75 35/87/67 36/88/68
f 46/97/75 47/92/71 34/83/64 35/87/67
f 37/86/66 36/88/68 31/82/63 30/79/62
f 43/98/76 44/99/77 37/86/66 38/85/65
f 83/100/20 41/94/72 40/90/69
f 42/95/73 43/98/76 38/85/65 39/91/70
f 54/101/78 53/102/79 42/95/73 41/94/72
f 49/103/80 48/104/81 47/92/71 46/97/75
f 44/99/77 45/96/74 36/88/68 37/86/66
f 83/105/20 54/101/78 41/94/72
f 53/102/79 52/106/82 43/98/76 42/95/73
f 51/107/83 50/108/84 45/96/74 44/99/77
f 52/106/82 51/107/83 44/99/77 43/98/76
f 50/108/84 49/103/80 46/97/75 45/96/74
f 57/109/85 58/110/86 51/107/83 52/106/82
f 58/110/86 59/111/87 50/108/84 51/107/83
f 83/112/20 55/113/88 54/101/78
f 56/114/89 57/109/85 52/106/82 53/102/79
f 59/111/87 60/115/90 49/103/80 50/108/84
f 55/113/88 56/114/89 53/102/79 54/101/78
f 61/116/91 114/117/5 48/104/81
f 48/104/81 114/118/5 47/92/71
f 63/119/92 62/120/93 61/116/91 60/115/90
f 64/121/94 63/119/92 60/115/90 59/111/87
f 83/122/20 68/123/95 55/113/88
f 66/124/96 65/125/97 58/110/86 57/109/85
f 68/123/95 67/126/98 56/114/89 55/113/88
f 65/125/97 64/121/94 59/111/87 58/110/86
f 60/115/90 61/116/91 48/104/81 49/103/80
f 62/120/93 114/127/5 61/116/91
f 70/128/99 71/129/100 66/124/96 67/126/98
f 83/130/20 69/131/101 68/123/95
f 71/129/100 72/132/102 65/125/97 66/124/96
f 67/126/98 66/124/96 57/109/85 56/114/89
f 72/132/102 73/133/103 64/121/94 65/125/97
f 74/134/104 75/135/105 62/120/93 63/119/92
f 75/135/105 114/136/5 62/120/93
f 73/133/103 74/134/104 63/119/92 64/121/94
f 83/137/20 82/138/106 69/131/101
f 69/131/101 70/128/99 67/126/98 68/123/95
f 81/139/107 80/140/108 71/129/100 70/128/99
f 77/141/109 76/142/110 75/135/105 74/134/104
f 82/138/106 81/139/107 70/128/99 69/131/101
f 78/143/111 77/141/109 74/134/104 73/133/103
f 76/142/110 114/144/5 75/135/105
f 80/140/108 79/145/112 72/132/102 71/129/100
f 113/6/6 114/146/5 76/142/110
f 89/15/15 113/6/6 76/142/110 77/141/109
f 87/147/113 88/17/17 78/143/111 79/145/112
f 84/10/10 85/9/9 81/139/107 82/138/106
f 86/19/19 87/147/113 79/145/112 80/140/108
f 83/148/20 84/10/10 82/138/106
f 85/9/9 86/19/19 80/140/108 81/139/107
f 79/145/112 78/143/111 73/133/103 72/132/102
f 107/149/114 108/16/16 88/17/17 87/147/113
f 88/17/17 89/15/15 77/141/109 78/143/111
f 100/28/26 101/30/28 108/16/16 107/149/114
f 99/24/24 100/28/26 107/149/114 106/18/18
f 83/150/20 112/7/7 84/10/10
f 106/18/18 107/149/114 87/147/113 86/19/19
f 103/2/2 114/151/5 110/3/3
f 104/14/14 99/24/24 106/18/18 111/8/8
